PathFileType	4	(X/Y/Z)	/Users/niels/Desktop/University/Third Semester/Perception and Action/Exam/Gymnastics Motion Tracking/Code for Gym Tracking/Analyzed Data/Webcam_Backflip/id8_2_pure_Sports2D/id8_2_pure_Sports2D_px_person00.trc
DataRate	CameraRate	NumFrames	NumMarkers	Units	OrigDataRate	OrigDataStartFrame	OrigNumFrames
29.8125	29.8125	7	22	m	29.8125	80	160
Frame#	Time	Hip			RHip			RKnee			RAnkle			RBigToe			RSmallToe			RHeel			LHip			LKnee			LAnkle			LBigToe			LSmallToe			LHeel			Neck			Head			Nose			RShoulder			RElbow			RWrist			LShoulder			LElbow			LWrist		
		X1	Y1	Z1	X2	Y2	Z2	X3	Y3	Z3	X4	Y4	Z4	X5	Y5	Z5	X6	Y6	Z6	X7	Y7	Z7	X8	Y8	Z8	X9	Y9	Z9	X10	Y10	Z10	X11	Y11	Z11	X12	Y12	Z12	X13	Y13	Z13	X14	Y14	Z14	X15	Y15	Z15	X16	Y16	Z16	X17	Y17	Z17	X18	Y18	Z18	X19	Y19	Z19	X20	Y20	Z20	X21	Y21	Z21	X22	Y22	Z22
80	2.683438155136268	0.9031006295897536	-0.6478179631325739	0.0	0.9068020459521235	-0.6465986752420204	0.0	0.9362124276653103	-0.7390925691754157	0.0	0.9031393637098543	-0.8296005025009612	0.0	0.9284339687653614	-0.8458746116731896	0.0	0.9210644206309365	-0.8469492254569296	0.0	0.895709799640341	-0.8402007247050456	0.0	0.8992649517104663	-0.6461720175771664	0.0	0.9199581000950394	-0.7403802101442065	0.0	0.8964385943314751	-0.8278871068491779	0.0	0.9271146151281823	-0.8450491207619845	0.0	0.9212427965078437	-0.8412915142192198	0.0	0.8859283970751702	-0.8370101778079765	0.0	0.9143242586481471	-0.5209030917739352	0.0	0.9275732048673742	-0.46340907605797454	0.0	0.9435230959953036	-0.4922965428265237	0.0	0.9113302948508734	-0.5424331420944263	0.0	0.9132908999708682	-0.6079013030961985	0.0	0.9287088679566948	-0.6600067750970815	0.0	0.9042231416076864	-0.5386145501168992	0.0	0.8973170349369294	-0.600869643577218	0.0	0.9218601379186397	-0.6517321580843297	0.0
81	2.716981132075471	0.9000431029477669	-0.6406379509417828	0.0	0.903541425747903	-0.6389998421927001	0.0	0.9375279720017085	-0.7310353267904889	0.0	0.9022808307173085	-0.8217886233881737	0.0	0.9293875954199174	-0.8374644507394463	0.0	0.9215739040086806	-0.8390090025214082	0.0	0.894460679435338	-0.8321128497860083	0.0	0.8964262499220165	-0.6383688242888681	0.0	0.9231204259686498	-0.7319958307672637	0.0	0.8963901896835226	-0.8191943154138445	0.0	0.9285116449418874	-0.8363731665860857	0.0	0.9225426234521783	-0.8327493878780852	0.0	0.8853335442307184	-0.8281675928294401	0.0	0.9143515429198469	-0.5156430540974722	0.0	0.9298033502105213	-0.45829764653103555	0.0	0.9445122648408768	-0.48714219085526067	0.0	0.9115750769812819	-0.5364662861480656	0.0	0.9111245493698914	-0.601976181545951	0.0	0.9248794468383608	-0.6542612728570437	0.0	0.9040909213469521	-0.5323729938512498	0.0	0.8946629931542737	-0.5943849510512013	0.0	0.9171224768519814	-0.6449732811262501	0.0
82	2.7505241090146746	0.8966955521634032	-0.6249300957372149	0.0	0.8999968434042074	-0.6229011980136535	0.0	0.9384908198799669	-0.7144686876954816	0.0	0.902056683169592	-0.8062235636421482	0.0	0.93152277317617	-0.821688037789928	0.0	0.9232815749979204	-0.8237491020637289	0.0	0.8936852927152982	-0.8165523117024435	0.0	0.8933498349918737	-0.6221105843269826	0.0	0.9264437621024306	-0.7149843145569367	0.0	0.8971180038173774	-0.8024960890642715	0.0	0.931249281569221	-0.8197436502735819	0.0	0.9251644330192699	-0.816270172989062	0.0	0.8853903830121264	-0.8117966690984234	0.0	0.9146920987989883	-0.5017623279720549	0.0	0.9324664511704458	-0.4443598109672206	0.0	0.9456883057852257	-0.47347266498822027	0.0	0.9118431218881214	-0.5215630620799216	0.0	0.9085295145350042	-0.5871754947890815	0.0	0.9201797435754739	-0.6402162960047797	0.0	0.9044414097480078	-0.5175133605234402	0.0	0.8925980818665556	-0.5791578143332102	0.0	0.9108331387900642	-0.6295771065254937	0.0
83	2.784067085953878	0.8935533546757828	-0.6033880625800613	0.0	0.8966626623530789	-0.6012762084785567	0.0	0.9386924856693063	-0.6923857286758257	0.0	0.9023059971364621	-0.7856187870051586	0.0	0.9341407551718829	-0.801731989248021	0.0	0.9255196390994693	-0.8041490342147797	0.0	0.8932510495058179	-0.7961762131554473	0.0	0.8904665634745296	-0.6003489532280071	0.0	0.9291460459175778	-0.6924289424840611	0.0	0.8983897159765277	-0.7808355369122513	0.0	0.9345290685205098	-0.7986188538559086	0.0	0.9283302545886609	-0.7952075208464521	0.0	0.8859566675115734	-0.7907401066898947	0.0	0.9152558213447908	-0.4818508387191466	0.0	0.9352307739205676	-0.4241487798289893	0.0	0.9468770252536453	-0.4538109258468058	0.0	0.9120781429738926	-0.5004365618487193	0.0	0.9058558372040946	-0.5661166969202103	0.0	0.915474304569788	-0.6204210307134488	0.0	0.9052247611669236	-0.4967939795490478	0.0	0.8915256968822832	-0.5580957489899449	0.0	0.9041527427521483	-0.6086051629595122	0.0
84	2.817610062893081	0.8910556493015617	-0.5790267215770651	0.0	0.8940089842188247	-0.577328837466158	0.0	0.9377919330158002	-0.6680791072371842	0.0	0.9028060463374015	-0.7629318207892368	0.0	0.9363841640692453	-0.7808994491835111	0.0	0.927456408942641	-0.7833773859527826	0.0	0.8930450158347941	-0.7739015172221291	0.0	0.8881388962768799	-0.5762506282627623	0.0	0.9305026140659001	-0.6677208653130254	0.0	0.8999377056570032	-0.757502991191348	0.0	0.9373341262467625	-0.7767397940949671	0.0	0.9310686124392414	-0.7732400786838999	0.0	0.8869759222657483	-0.768091117203817	0.0	0.9158381169988604	-0.4587878426798665	0.0	0.9377102144289701	-0.400587515906288	0.0	0.9478593460702279	-0.4309505131940491	0.0	0.9121988890445264	-0.47616154828987295	0.0	0.9033102610301392	-0.5416829012627313	0.0	0.9112647479298456	-0.5975060327977046	0.0	0.906156333049954	-0.4731594999217314	0.0	0.8912242614197481	-0.5342128683739578	0.0	0.8979032372925773	-0.5850766690128527	0.0
85	2.8511530398322846	0.8894805408829581	-0.5546521992976974	0.0	0.8922732990944889	-0.5537662204337881	0.0	0.935673667010694	-0.6443559158332097	0.0	0.9033007316508329	-0.7406932092470079	0.0	0.9376280262298652	-0.7616829532740513	0.0	0.9284196746574646	-0.7639215874283442	0.0	0.8929579061930099	-0.7522273706842778	0.0	0.8866389452044097	-0.552527479926357	0.0	0.9302911970745352	-0.643733857376809	0.0	0.9016089409462112	-0.7351802928980826	0.0	0.9389140170930521	-0.75685259528973	0.0	0.9327606665855408	-0.7530970912340672	0.0	0.8885834140800482	-0.746399288400293	0.0	0.9162391766865163	-0.4351122448777223	0.0	0.9395336965201829	-0.3763666017650902	0.0	0.9484179504867988	-0.4074012310295868	0.0	0.9121302941013533	-0.4514332449534415	0.0	0.900939765499615	-0.5163908463613892	0.0	0.9076014242871828	-0.57369790646913	0.0	0.9069545578711484	-0.44914309263045765	0.0	0.8912297543148512	-0.5100646402055482	0.0	0.8925890433608641	-0.5613406751422553	0.0
86	2.884696016771488	0.8889185920507842	-0.5324520671808265	0.0	0.8914100774608684	-0.5324896718200924	0.0	0.9324521776227804	-0.6231029466074158	0.0	0.9034337304050776	-0.7206502507935525	0.0	0.9375254514330238	-0.7453970014237621	0.0	0.9279695468818614	-0.7471861371942282	0.0	0.8927344795127166	-0.7328047021041256	0.0	0.8861486847183185	-0.5311107137302212	0.0	0.9288019330141517	-0.6223721558035267	0.0	0.9034449036373534	-0.7154892969118835	0.0	0.9389880039300902	-0.7402188961898497	0.0	0.9332965629095049	-0.7360830276751462	0.0	0.891073051979998	-0.7272476046157988	0.0	0.9163491230665627	-0.41272252185183195	0.0	0.9404171752212247	-0.3535504867645727	0.0	0.9483791044915195	-0.385100876505327	0.0	0.9118238477833858	-0.4282128610518864	0.0	0.8987216081406878	-0.49218175613506054	0.0	0.9043647229280772	-0.5507169473474157	0.0	0.907502931884053	-0.42663616227619233	0.0	0.8912270683327087	-0.4875015049505555	0.0	0.8886270036974158	-0.5389802326350378	0.0
